<svg width="30" height="30" viewBox="0 0 42 42" fill="none" xmlns="http://www.w3.org/2000/svg">
            <path fill-rule="evenodd" clip-rule="evenodd"
              d="M29.8042 4.32066C29.9264 4.44257 30.0234 4.58741 30.0895 4.74687C30.1557 4.90632 30.1898 5.07727 30.1898 5.2499C30.1898 5.42254 30.1557 5.59349 30.0895 5.75294C30.0234 5.9124 29.9264 6.05724 29.8042 6.17916L14.9808 20.9999L29.8042 35.8207C30.0506 36.0671 30.1891 36.4014 30.1891 36.7499C30.1891 37.0984 30.0506 37.4327 29.8042 37.6792C29.5577 37.9256 29.2234 38.0641 28.8749 38.0641C28.5264 38.0641 28.1921 37.9256 27.9457 37.6792L12.1957 21.9292C12.0734 21.8072 11.9765 21.6624 11.9103 21.5029C11.8441 21.3435 11.8101 21.1725 11.8101 20.9999C11.8101 20.8273 11.8441 20.6563 11.9103 20.4969C11.9765 20.3374 12.0734 20.1926 12.1957 20.0707L27.9457 4.32066C28.0676 4.19843 28.2124 4.10145 28.3719 4.03528C28.5313 3.96912 28.7023 3.93506 28.8749 3.93506C29.0475 3.93506 29.2185 3.96912 29.3779 4.03528C29.5374 4.10145 29.6822 4.19843 29.8042 4.32066Z"
              fill="#EDEBB2" />
          </svg>