<?xml version="1.0" encoding="UTF-8"?><svg xmlns="http://www.w3.org/2000/svg" viewBox="0 0 120 100"><defs><style>.d{fill:#c8b5c8;stroke:#8068adff;stroke-width:3px;}.e{fill:none;stroke:#8068adff;stroke-miterlimit:10;stroke-width:3px;}</style></defs><g id="a"/><g id="b"><g id="c"><g><path class="d" d="M33.22,1c17.76,0,32.22,14.45,32.22,32.22,0,7.36-2.42,14.29-6.99,20.04-6.16,7.74-15.35,12.17-25.22,12.17C15.45,65.43,1,50.98,1,33.22S15.45,1,33.22,1m0-1C14.87,0,0,14.87,0,33.22s14.87,33.22,33.22,33.22c10.53,0,19.92-4.9,26.01-12.55,4.51-5.67,7.21-12.85,7.21-20.67C66.43,14.87,51.56,0,33.22,0h0Z"/><line class="e" x1="87.29" y1="82.65" x2="57.08" y2="55.19"/></g></g></g></svg>