<?xml version="1.0" encoding="utf-8"?>
<!-- Generator: Adobe Illustrator 23.1.0, SVG Export Plug-In . SVG Version: 6.00 Build 0)  -->
<svg version="1.1" id="Layer_1" xmlns="http://www.w3.org/2000/svg" xmlns:xlink="http://www.w3.org/1999/xlink" x="0px" y="0px"
	 viewBox="0 0 120 100" style="enable-background:new 0 0 120 100;" xml:space="preserve">
<style type="text/css">
	.st0{fill:#C8B5C8;stroke:#8068AD;stroke-width:3;}
	.st1{fill:none;stroke:#8068AD;stroke-width:3;stroke-miterlimit:10;}
</style>
<g id="a">
</g>
<g id="b">
	<g id="c">
		<g>
			<path class="st0" d="M51.7,10.3C69.5,10.3,84,24.8,84,42.6c0,7.4-2.4,14.3-7,20c-6.2,7.7-15.3,12.2-25.2,12.2
				c-17.8,0-32.2-14.5-32.2-32.2S34,10.3,51.7,10.3 M51.7,9.3c-18.4,0-33.2,14.9-33.2,33.2s14.9,33.2,33.2,33.2
				c10.5,0,19.9-4.9,26-12.6c4.5-5.7,7.2-12.8,7.2-20.7C84.9,24.2,70.1,9.3,51.7,9.3L51.7,9.3z"/>
			<line class="st1" x1="105.8" y1="92" x2="75.6" y2="64.5"/>
		</g>
	</g>
</g>
</svg>
